<svg version="1.1" id="Iterable_Logo" xmlns="http://www.w3.org/2000/svg" xmlns:xlink="http://www.w3.org/1999/xlink" x="0px" y="0px" viewBox="0 0 755 211" style="enable-background:new 0 0 755 211;" xml:space="preserve"><style type="text/css">
				.lgm-0 {
					opacity: 0.25;
					fill: #59C1A7;
				}

				.lgm-1 {
					opacity: 0.25;
					fill: #36C3F2;
				}

				.lgm-2 {
					opacity: 0.15;
					fill: #EF3D55;
				}

				.lgm-3 {
					opacity: 0.15;
					fill: #6A266D;
				}

				.lgm-4 {
					fill: #6A266D;
				}

				.lgm-5 {
					fill: #36C3F2;
				}

				.lgm-6 {
					fill: #59C1A7;
				}

				.lgm-7 {
					fill: #EF3D55;
				}

				.lgm-8 {
					fill: #333332;
				}
			</style><g><g id="Lines"><rect x="91.1" y="116.4" transform="matrix(0.7071 -0.7071 0.7071 0.7071 -59.0175 143.9682)" class="lgm-0" width="106.4" height="53.6"/><rect x="117" y="14.2" transform="matrix(0.7071 -0.7071 0.7071 0.7071 -5.5275 121.3963)" class="lgm-1" width="53.6" height="106.4"/><rect x="40.6" y="90.1" transform="matrix(0.7071 -0.7071 0.7071 0.7071 -81.5754 89.6043)" class="lgm-2" width="53.6" height="106.4"/><rect x="16" y="38.8" transform="matrix(0.7071 -0.7071 0.7071 0.7071 -26.1218 68.123)" class="lgm-3" width="106.4" height="53.6"/></g><g id="Nodes"><circle class="lgm-4" cx="105.7" cy="29.2" r="27"/><circle class="lgm-5" cx="181.9" cy="105.7" r="27"/><circle class="lgm-6" cx="105.7" cy="181.9" r="27"/><circle class="lgm-7" cx="29.5" cy="105.4" r="27"/></g></g><g id="Iterable" class="itbl-c-scrollhide-nav__svg" style=""><path class="lgm-8" d="M444.1,73.7h-32.9c-0.6,0-1.1,0.5-1.1,1.1v57.9c0,0.6,0.5,1.1,1.1,1.1h32.9c0.6,0,1.1-0.5,1.1-1.1v-9.2&#10;&#9;&#9;c0-0.6-0.5-1.1-1.1-1.1l0,0H424c-1.2,0-2.1-0.9-2.1-2.1v-9.5c0-1.2,0.9-2.1,2.1-2.1h18.4c0.6,0,1.1-0.5,1.1-1.1v-8.3&#10;&#9;&#9;c0-0.6-0.5-1.1-1.1-1.1H424c-1.2,0-2.1-0.9-2.1-2.1v-8.8c0-1.2,0.9-2.1,2.1-2.1h20.1c0.6,0,1.1-0.5,1.1-1.1v-9.2&#10;&#9;&#9;C445.2,74.2,444.7,73.7,444.1,73.7L444.1,73.7z"/><path class="lgm-8" d="M580.7,133.8c0.4,0,0.7-0.2,0.9-0.5s0.2-0.7,0.1-1l-23.2-58c-0.2-0.4-0.6-0.7-1-0.7h-5.9c-0.4,0-0.8,0.3-1,0.7&#10;&#9;&#9;l-23.2,57.9c-0.1,0.3-0.1,0.7,0.1,1c0.2,0.3,0.6,0.5,0.9,0.5H539c0.5,0,0.8-0.3,1-0.7l2.9-8c0.3-0.8,1.1-1.4,2-1.4h19.5&#10;&#9;&#9;c0.9,0,1.7,0.6,2,1.4l2.8,8c0.2,0.4,0.5,0.7,1,0.7L580.7,133.8z M560.9,112.5c-0.4,0.6-1,0.9-1.7,0.9h-9.1c-0.7,0-1.3-0.3-1.7-0.9&#10;&#9;&#9;s-0.5-1.3-0.3-1.9l4.5-12.7c0.4-1.1,1.6-1.7,2.7-1.3c0.6,0.2,1.1,0.7,1.3,1.3l4.5,12.7C561.4,111.2,561.3,111.9,560.9,112.5z"/><path class="lgm-8" d="M695.5,133.8c0.6,0,1.1-0.5,1.1-1.1v-9.2c0-0.6-0.5-1.1-1.1-1.1l0,0h-17.1c-1.2,0-2.1-0.9-2.1-2.1V74.8&#10;&#9;&#9;c0-0.6-0.5-1.1-1.1-1.1h-9.6c-0.6,0-1.1,0.5-1.1,1.1v57.9c0,0.6,0.5,1.1,1.1,1.1L695.5,133.8L695.5,133.8z"/><path class="lgm-8" d="M602.1,133.8h22.7c3.5,0.1,7-0.7,10.1-2.4c2.7-1.5,4.9-3.7,6.4-6.3c1.4-2.5,2.2-5.4,2.2-8.3&#10;&#9;&#9;c0.2-6.3-3.4-12.1-9.1-14.9c-0.2-0.1-0.3-0.3-0.3-0.5v-0.3l0.2-0.3c3.4-2.8,5.3-7,5.2-11.4c0-2.8-0.7-5.5-2-7.9&#10;&#9;&#9;c-1.4-2.5-3.5-4.5-6-5.7c-3.1-1.5-6.5-2.3-10-2.2h-19.3c-0.7,0-1.2,0.5-1.2,1.2v57.8C600.9,133.3,601.5,133.8,602.1,133.8z&#10;&#9;&#9; M612.8,86.9c0-1,0.8-1.8,1.8-1.8h5.2c2-0.1,4,0.5,5.5,1.8c1.1,1,1.8,2.3,2,3.8c0.3,2.1-0.5,4.1-2,5.6c-1.5,1.4-3.6,2.1-5.6,2h-5.2&#10;&#9;&#9;c-1,0-1.8-0.8-1.8-1.8L612.8,86.9z M612.8,109.9c0-1,0.8-1.8,1.8-1.8h8c2.1-0.1,4.2,0.6,5.8,2.1c1.5,1.3,2.3,3.1,2.3,5.1&#10;&#9;&#9;s-0.8,3.9-2.2,5.2c-1.6,1.5-3.7,2.2-5.9,2.1h-7.9c-1,0-1.9-0.9-1.9-1.9l0,0L612.8,109.9z"/><path class="lgm-8" d="M499.4,113c-0.6-1-0.2-2.2,0.7-2.8c2.6-1.6,4.8-3.7,6.3-6.4c1.8-3.1,2.8-6.7,2.7-10.4c0-3.4-0.9-6.7-2.5-9.7&#10;&#9;&#9;c-1.7-3-4.2-5.6-7.2-7.3c-3.3-1.9-7-2.8-10.8-2.8h-18.3c-0.6,0-1.1,0.5-1.1,1.1v57.9c0,0.6,0.5,1.1,1.1,1.1h9.6&#10;&#9;&#9;c0.6,0,1.1-0.5,1.1-1.1v-17.5c0-1.2,0.9-2.1,2.1-2.1h2.9c0.8,0,1.5,0.4,1.9,1.1l9.9,19c0.2,0.4,0.6,0.6,1,0.6h10.9&#10;&#9;&#9;c0.6,0,1.1-0.4,1.2-1c0-0.2,0-0.4-0.2-0.6L499.4,113z M494.5,99.5c-1.8,1.6-4.2,2.4-6.6,2.3h-4.8c-1.2,0-2.1-0.9-2.1-2.1V87.2&#10;&#9;&#9;c0-1.2,0.9-2.1,2.1-2.1h4.8c2.4-0.1,4.8,0.8,6.6,2.4c3.3,3.2,3.4,8.5,0.2,11.8C494.6,99.3,494.5,99.4,494.5,99.5L494.5,99.5z"/><path class="lgm-8" d="M388.1,73.7h-37.9c-0.6,0-1.1,0.5-1.1,1.1l0,0V84c0,0.6,0.5,1.1,1.1,1.1l0,0h11.1c1.2,0,2.1,0.9,2.1,2.1l0,0&#10;&#9;&#9;v45.6c0,0.6,0.5,1.1,1.1,1.1h9.7c0.6,0,1.1-0.5,1.1-1.1l0,0V87.1c0-1.2,0.9-2.1,2.1-2.1h10.7c0.6,0,1.1-0.5,1.1-1.1v-9.2&#10;&#9;&#9;C389.2,74.2,388.7,73.7,388.1,73.7L388.1,73.7z"/><path class="lgm-8" d="M751.5,122.4h-20.1c-1.2,0-2.1-0.9-2.1-2.1v-9.5c0-1.2,0.9-2.1,2.1-2.1h18.4c0.6,0,1.1-0.5,1.1-1.1v-8.3&#10;&#9;&#9;c0-0.6-0.5-1.1-1.1-1.1h-18.4c-1.2,0-2.1-0.9-2.1-2.1v-8.8c0-1.2,0.9-2.1,2.1-2.1h20.1c0.6,0,1.1-0.5,1.1-1.1v-9.2&#10;&#9;&#9;c0-0.6-0.5-1.1-1.1-1.1h-32.9c-0.6,0-1.1,0.5-1.1,1.1v57.9c0,0.6,0.5,1.1,1.1,1.1h33c0.6,0,1.1-0.5,1.1-1.1v-9.2&#10;&#9;&#9;C752.6,122.9,752.1,122.4,751.5,122.4z"/><path class="lgm-8" d="M326.7,122.3h-9.5c-1.2,0-2.1-0.9-2.1-2.1l0,0V87.1c0-1.2,0.9-2.1,2.1-2.1h9.6c0.6,0,1.1-0.5,1.1-1.1l0,0v-9.2&#10;&#9;&#9;c0-0.6-0.5-1.1-1.1-1.1l0,0H291c-0.6,0-1.1,0.5-1.1,1.1l0,0V84c0,0.6,0.5,1.1,1.1,1.1l0,0h10.1c1.2,0,2.1,0.9,2.1,2.1v33.2&#10;&#9;&#9;c0,1.1-1,2-2.1,2H291c-0.6,0-1.1,0.5-1.1,1.1l0,0v9.2c0,0.6,0.5,1.1,1.1,1.1l0,0h13c0.1,0,0.2,0.1,0.3,0.1h9.7c0.1,0,0.2,0,0.3-0.1&#10;&#9;&#9;h12.5c0.6,0,1.1-0.5,1.1-1.1l0,0v-9.2C327.8,122.8,327.3,122.3,326.7,122.3L326.7,122.3z"/></g></svg>